<svg width="20" height="20" viewBox="0 0 20 20" fill="none" xmlns="http://www.w3.org/2000/svg">
<path d="M13.6903 0.601782C12.8779 0.59383 12.0767 0.801867 11.3615 1.20652C10.6462 1.61118 10.0401 2.19929 9.59961 2.9161C9.15909 2.19929 8.55299 1.61118 7.83774 1.20652C7.12248 0.801867 6.32133 0.59383 5.5089 0.601782C4.20953 0.604267 2.96389 1.14654 2.04405 2.11017C1.12422 3.07379 0.604929 4.38046 0.599609 5.74477C0.599609 10.8873 9.59961 18.6016 9.59961 18.6016C9.59961 18.6016 18.5996 10.8873 18.5996 5.74477C18.5943 4.38046 18.075 3.07379 17.1552 2.11017C16.2353 1.14654 14.9897 0.604267 13.6903 0.601782Z" stroke="black" stroke-width="1.2" stroke-miterlimit="10" stroke-linecap="square"/>
</svg>
