<svg width="172" height="79" viewBox="0 0 172 79" fill="none" xmlns="http://www.w3.org/2000/svg">
<path d="M21.1114 20.3502C21.3371 20.09 21.6682 19.9851 21.9756 20.0294L54 25C54.3219 25.0463 54.7331 24.912 54.8663 25.2606C55.8674 27.8779 56.0494 32.6957 53.6871 36.8388C51.2767 41.0661 46.3125 44.4386 37.3319 44.2534C28.2576 44.0663 22.9816 39.4963 20.592 34.2487C19.4071 31.6467 18.9366 28.8901 19.0504 26.4424C19.1634 24.0144 19.8578 21.7949 21.1114 20.3502ZM22.1464 21.7598C21.3594 22.8423 20.8305 24.514 20.7372 26.5209C20.6356 28.706 21.0569 31.1954 22.1286 33.5489C24.2522 38.2123 28.9486 42.3917 37.3666 42.5653C45.8572 42.7403 50.1753 39.5888 52.2203 36.0024C54.1926 32.5434 54.1379 28.5381 53.4267 26.2617L22.1464 21.7598ZM53.2903 25.8665L53.2894 25.8638L53.2889 25.8628L53.2903 25.8665Z" fill="black"/>
<path d="M87.7219 20.0919C88.0294 20.0476 88.3608 20.1526 88.5865 20.4132C89.8397 21.8579 90.534 24.0771 90.6469 26.5048C90.7607 28.9525 90.2902 31.7091 89.1054 34.311C86.7157 39.5586 81.4397 44.1287 72.3654 44.3158C63.3848 44.501 58.4208 41.1285 56.0103 36.9011C53.648 32.7581 53.8299 27.9403 54.8309 25.323L54.8312 25.322C54.9645 24.9749 55.1774 25.0464 55.5 25L87.7219 20.0919ZM56.2705 26.3242C55.5593 28.6006 55.5049 32.6058 57.4772 36.0648C59.5221 39.6512 63.8401 42.8027 72.3306 42.6276C80.7487 42.4541 85.4451 38.2747 87.5687 33.6113C88.6404 31.2578 89.0619 28.7684 88.9602 26.5832C88.8669 24.5764 88.3379 22.9047 87.5509 21.8222L56.2705 26.3242Z" fill="black"/>
<path d="M0.202214 1.55339C-0.405762 0.751684 0.465779 -0.329285 1.37837 0.0957414L54.6779 24.9179H54.6781C55.6924 25.3893 55.226 26.9188 54.1223 26.7461V26.7459L22.5219 21.8121L22.4731 21.8046L22.4256 21.7913L14.0251 19.451C13.821 19.3949 13.6407 19.2731 13.5124 19.1037V19.1039L0.202214 1.55339ZM53.9664 26.4491L53.9658 26.4488L53.9635 26.4476L53.9664 26.4491ZM54.383 25.0778H54.3834C54.3825 25.0777 54.3816 25.0776 54.3808 25.0775L54.383 25.0778ZM14.7103 17.8891L22.8313 20.1514L49.3268 24.2883L3.31103 2.85828L14.7103 17.8891ZM14.8583 18.0845L14.8591 18.0853C14.8588 18.0849 14.8584 18.0845 14.8581 18.0841L14.8583 18.0845Z" fill="black"/>
<path d="M108.439 0.158361C109.352 -0.267065 110.223 0.814527 109.616 1.6159L96.3054 19.1665C96.178 19.3346 95.9983 19.4572 95.7928 19.5137L87.3922 21.8539L87.3447 21.8672L87.2959 21.8747L55.6954 26.8086C54.5925 26.9811 54.1248 25.4526 55.1393 24.9806L108.439 0.158361ZM55.8518 26.5114C55.8533 26.5107 55.8545 26.51 55.856 26.5093L55.8518 26.5114ZM60.4906 24.3509L86.9865 20.214L95.1073 17.9517L106.507 2.9209L60.4906 24.3509ZM109.148 1.69069C109.15 1.69005 109.151 1.68956 109.153 1.68892L109.148 1.69069Z" fill="black"/>
<path d="M39.6576 40.5168C44.7199 40.5168 48.8238 36.899 48.8238 32.4362C48.8238 27.9733 44.7199 24.3555 39.6576 24.3555C34.5953 24.3555 30.4915 27.9733 30.4915 32.4362C30.4915 36.899 34.5953 40.5168 39.6576 40.5168Z" fill="black"/>
<path d="M70.16 40.4543C65.0977 40.4543 60.9939 36.8365 60.9939 32.3737C60.9939 27.9108 65.0977 24.293 70.16 24.293C75.2223 24.293 79.3262 27.9108 79.3262 32.3737C79.3262 36.8365 75.2223 40.4543 70.16 40.4543Z" fill="black"/>
<path d="M43.2762 32.9171C44.9414 32.9171 46.2913 31.5671 46.2913 29.9019C46.2913 28.2367 44.9414 26.8867 43.2762 26.8867C41.6109 26.8867 40.261 28.2367 40.261 29.9019C40.261 31.5671 41.6109 32.9171 43.2762 32.9171Z" fill="white"/>
<path d="M68.0004 32.796C66.3352 32.796 64.9853 31.446 64.9853 29.7808C64.9853 28.1156 66.3352 26.7656 68.0004 26.7656C69.6657 26.7656 71.0156 28.1156 71.0156 29.7808C71.0156 31.446 69.6657 32.796 68.0004 32.796Z" fill="white"/>
<path d="M37.5472 37.1392C38.7128 37.1392 39.6578 36.1943 39.6578 35.0286C39.6578 33.8629 38.7128 32.918 37.5472 32.918C36.3815 32.918 35.4365 33.8629 35.4365 35.0286C35.4365 36.1943 36.3815 37.1392 37.5472 37.1392Z" fill="white"/>
<path d="M73.7292 37.0181C72.5635 37.0181 71.6186 36.0732 71.6186 34.9075C71.6186 33.7418 72.5635 32.7969 73.7292 32.7969C74.8949 32.7969 75.8398 33.7418 75.8398 34.9075C75.8398 36.0732 74.8949 37.0181 73.7292 37.0181Z" fill="white"/>
<path d="M55.0247 34.4655C53.9361 37.318 51.6812 40.7633 47.4973 42.8532V45.1058L55.0003 52.5548L61.6687 45.1337V42.4456C59.6954 41.2374 56.5538 38.4891 55.0247 34.4655ZM47.2834 44.8935L47.2847 44.8948L47.2825 44.8925L47.2834 44.8935ZM63.3572 45.4111C63.3572 45.6473 63.2703 45.8774 63.11 46.0558L63.1101 46.0559L55.748 54.2492L55.7479 54.2491C55.3896 54.6479 54.7805 54.6752 54.3879 54.3242L54.3505 54.289L46.0939 46.0918L46.094 46.0917C45.9103 45.9094 45.8088 45.6624 45.8088 45.4072V42.3989C45.8088 42.0155 46.0348 41.6778 46.3691 41.5229C51.3092 39.2325 53.3775 34.834 53.9984 32.0484L54.0072 32.0121C54.1042 31.6429 54.3837 31.458 54.5477 31.3833C54.7246 31.3026 54.9017 31.2802 55.0418 31.2813C55.1819 31.2824 55.3583 31.3078 55.5335 31.3909C55.7007 31.4703 55.9894 31.6682 56.0722 32.0614L56.0964 32.1735C57.1424 36.909 60.9138 40.1055 62.862 41.1882L62.8619 41.1883C63.1798 41.3648 63.3572 41.6938 63.3572 42.0314V45.4111Z" fill="black"/>
<path d="M146.817 76.5794H136.783V73.6849H140.642C142.925 68.2174 145.208 62.8142 147.493 57.4752C149.808 52.1364 152.107 46.7332 154.391 41.2656C156.674 46.7332 158.958 52.1364 161.242 57.4752C163.558 62.8142 165.856 68.2174 168.141 73.6849H172V76.5794H161.965V73.6849H165.053C164.249 71.8516 163.461 70.0184 162.689 68.1852C161.949 66.3519 161.194 64.5187 160.422 62.6855H148.361C147.428 64.9046 146.64 66.7379 145.997 68.1852C145.386 69.6325 144.614 71.4657 143.681 73.6849H146.817V76.5794ZM153.861 49.5152C153.153 51.2198 152.429 52.9566 151.69 54.7254C150.982 56.4621 150.291 58.1506 149.615 59.7909H159.167L154.826 49.5152L154.343 48.0196C154.247 48.4056 154.15 48.7112 154.054 48.9362C153.989 49.1614 153.925 49.3544 153.861 49.5152Z" fill="black"/>
<path d="M141.35 45.7032C139.067 51.1707 136.784 56.59 134.5 61.961C132.217 67.2999 129.934 72.687 127.649 78.1224C125.366 72.687 123.066 67.2999 120.751 61.961C118.467 56.59 116.184 51.1707 113.9 45.7032H109.751V42.8086H120.461V45.7032H116.94C118.676 49.7556 120.382 53.7919 122.053 57.8121C123.759 61.8323 125.478 65.8527 127.215 69.8729L127.649 71.3684L128.084 69.8729C129.789 65.8527 131.493 61.8485 133.197 57.8604C134.903 53.8402 136.591 49.7878 138.263 45.7032H135.223V42.8086H145.933V45.7032H141.35Z" fill="black"/>
<path d="M103.666 71.8944C102.09 73.4702 100.257 74.7085 98.1668 75.6091C96.0762 76.5095 93.8409 76.9599 91.461 76.9599C89.0809 76.9599 86.8457 76.5095 84.7552 75.6091C82.6646 74.7085 80.8476 73.4702 79.3038 71.8944C77.7278 70.3506 76.4895 68.5334 75.5891 66.4429C74.6885 64.3523 74.2383 62.1171 74.2383 59.7372C74.2383 57.3571 74.6885 55.1219 75.5891 53.0314C76.4895 50.9408 77.7278 49.1076 79.3038 47.5317C80.8476 45.9557 82.6646 44.7175 84.7552 43.817C86.8457 42.8842 89.0809 42.418 91.461 42.418C93.8409 42.418 96.0762 42.8842 98.1668 43.817C100.257 44.7175 102.09 45.9557 103.666 47.5317C105.242 49.1076 106.481 50.9408 107.381 53.0314C108.314 55.1219 108.78 57.3571 108.78 59.7372C108.78 62.1171 108.314 64.3523 107.381 66.4429C106.481 68.5334 105.242 70.3506 103.666 71.8944ZM81.4747 69.8199C82.729 71.1385 84.2084 72.1838 85.9131 72.9557C87.6498 73.6954 89.4991 74.0653 91.461 74.0653C93.4228 74.0653 95.2722 73.6954 97.0089 72.9557C98.7457 72.1838 100.257 71.1385 101.544 69.8199C102.83 68.5656 103.843 67.0701 104.583 65.3333C105.355 63.5644 105.741 61.699 105.741 59.7372C105.741 57.7753 105.355 55.926 104.583 54.1892C103.843 52.4203 102.846 50.8926 101.592 49.6062C100.273 48.2874 98.7457 47.2583 97.0089 46.5186C95.3043 45.7467 93.471 45.3608 91.5092 45.3608C89.5473 45.3608 87.6981 45.7467 85.9613 46.5186C84.2246 47.2583 82.729 48.2874 81.4747 49.6062C80.156 50.8926 79.1269 52.4203 78.3872 54.1892C77.6474 55.926 77.2776 57.7753 77.2776 59.7372C77.2776 61.7312 77.6474 63.5966 78.3872 65.3333C79.1269 67.0701 80.156 68.5656 81.4747 69.8199Z" fill="black"/>
<path d="M72.2563 74.5041C72.2563 75.1153 72.0472 75.6137 71.6291 75.9997C71.2111 76.3856 70.7447 76.5786 70.2301 76.5786C69.7155 76.5786 69.2492 76.3856 68.831 75.9997C68.413 75.6137 68.2039 75.1153 68.2039 74.5041C68.2039 73.9252 68.413 73.4428 68.831 73.0568C69.2492 72.6387 69.7155 72.4297 70.2301 72.4297C70.7447 72.4297 71.2111 72.6387 71.6291 73.0568C72.0472 73.4428 72.2563 73.9252 72.2563 74.5041Z" fill="black"/>
<path d="M56.6693 74.5041C56.6693 75.1153 56.4603 75.6137 56.0422 75.9997C55.624 76.3856 55.1578 76.5786 54.6431 76.5786C54.1285 76.5786 53.6622 76.3856 53.2441 75.9997C52.826 75.6137 52.6169 75.1153 52.6169 74.5041C52.6169 73.9252 52.826 73.4428 53.2441 73.0568C53.6622 72.6387 54.1285 72.4297 54.6431 72.4297C55.1578 72.4297 55.624 72.6387 56.0422 73.0568C56.4603 73.4428 56.6693 73.9252 56.6693 74.5041Z" fill="black"/>
<path d="M41.0829 74.5041C41.0829 75.1153 40.8738 75.6137 40.4558 75.9997C40.0376 76.3856 39.5712 76.5786 39.0567 76.5786C38.5421 76.5786 38.0757 76.3856 37.6577 75.9997C37.2395 75.6137 37.0305 75.1153 37.0305 74.5041C37.0305 73.9252 37.2395 73.4428 37.6577 73.0568C38.0757 72.6387 38.5421 72.4297 39.0567 72.4297C39.5712 72.4297 40.0376 72.6387 40.4558 73.0568C40.8738 73.4428 41.0829 73.9252 41.0829 74.5041Z" fill="black"/>
<path d="M28.0794 74.4536C27.1468 75.2577 26.0693 75.8848 24.8471 76.3351C23.625 76.7532 22.3225 76.9622 20.9395 76.9622C19.7173 76.9622 18.5434 76.8335 17.4177 76.5763C16.2921 76.2868 15.279 75.9331 14.3784 75.5149C13.4779 75.0968 12.6739 74.6305 11.9663 74.1159C11.2909 73.5692 10.7602 73.0223 10.3743 72.4756V67.1207H13.2688V71.4143C14.1372 72.154 15.1825 72.7811 16.4046 73.2958C17.6267 73.8104 19.0419 74.0677 20.65 74.0677C21.6149 74.0677 22.5315 73.9229 23.3998 73.6335C24.3004 73.344 25.0884 72.9259 25.7638 72.3792C26.4392 71.8324 26.9698 71.157 27.3558 70.353C27.7739 69.5489 27.9829 68.6322 27.9829 67.6031C27.9829 66.7669 27.8864 65.995 27.6935 65.2874C27.5005 64.5798 27.195 63.9849 26.7769 63.5025C26.2301 62.8593 25.603 62.3446 24.8954 61.9587C24.22 61.5727 23.4641 61.2028 22.628 60.8491C21.4701 60.4309 20.248 60.045 18.9615 59.6913C17.7072 59.3375 16.5494 58.8551 15.488 58.244C14.3945 57.6651 13.4779 56.8771 12.7382 55.8801C12.0306 54.8509 11.6608 53.4357 11.6286 51.6347C11.5964 50.5734 11.7251 49.512 12.0145 48.4507C12.3362 47.3893 12.8669 46.4245 13.6065 45.5561C14.3141 44.6877 15.2468 43.9801 16.4046 43.4334C17.5947 42.8867 19.0419 42.6133 20.7465 42.6133C21.2932 42.6133 21.9043 42.6455 22.5797 42.7098C23.2551 42.7741 23.9466 42.8867 24.6542 43.0475C25.3296 43.2404 26.0372 43.5139 26.7769 43.8676C27.5165 44.2213 28.2402 44.6877 28.9478 45.2666V50.2357H26.0532V46.7139C25.4421 46.3923 24.6864 46.119 23.7858 45.8938C22.8852 45.6365 21.8721 45.5079 20.7465 45.5079C19.6851 45.5079 18.7685 45.6848 17.9966 46.0385C17.2248 46.3602 16.5976 46.8104 16.1152 47.3893C15.6327 47.9682 15.2628 48.6114 15.0056 49.319C14.7804 50.0266 14.6679 50.7663 14.6679 51.5382C14.6679 52.7282 14.9413 53.6769 15.488 54.3845C16.0669 55.0599 16.8228 55.6228 17.7554 56.0731C18.9455 56.652 20.3283 57.1666 21.9043 57.6168C23.4803 58.035 24.9919 58.5977 26.4392 59.3053C27.79 59.9485 28.8835 60.9295 29.7197 62.2481C30.588 63.5347 31.0222 65.3035 31.0222 67.5549C31.0544 69.0021 30.7971 70.3047 30.2503 71.4625C29.7357 72.6204 29.0121 73.6174 28.0794 74.4536Z" fill="black"/>
</svg>
